<?xml version="1.0" encoding="UTF-8"?>
<!DOCTYPE svg PUBLIC "-//W3C//DTD SVG 1.1//EN" "http://www.w3.org/Graphics/SVG/1.1/DTD/svg11.dtd">
<!-- Creator: CorelDRAW SE (64-Bit) -->
<svg xmlns="http://www.w3.org/2000/svg" xml:space="preserve" width="100.393mm" height="9.7406mm" version="1.1" style="shape-rendering:geometricPrecision; text-rendering:geometricPrecision; image-rendering:optimizeQuality; fill-rule:evenodd; clip-rule:evenodd"
viewBox="0 0 13160.46 1276.89"
 xmlns:xlink="http://www.w3.org/1999/xlink"
 xmlns:xodm="http://www.corel.com/coreldraw/odm/2003">
 <defs>
  <style type="text/css">
   <![CDATA[
    .fil0 {fill:#2B2A29;fill-rule:nonzero}
   ]]>
  </style>
 </defs>
 <g id="Vrstva_x0020_1">
  <metadata id="CorelCorpID_0Corel-Layer"/>
  <path class="fil0" d="M1409.16 1256.31l-275.01 0 -135.87 -314.37 -593.87 0 -130.49 314.37 -273.91 0 565.45 -1235.43 282.2 0 561.51 1235.43zm-477.03 -481.7l-209.59 -492.88c-6.46,-15.87 -13.29,-41.75 -20.12,-77.34l-4.31 0c-6.12,32.64 -13.32,58.53 -20.86,77.34l-207.78 492.88 462.65 0zm684.44 481.7l0 -1235.43 435.69 0c556.84,0 835.45,200.57 835.45,602.28 0,190.56 -77.29,343.77 -231.87,459.64 -154.58,115.58 -361.64,173.51 -621.19,173.51l-418.07 0zm249.49 -1061.34l0 888.13 200.21 0c176.16,0 313.12,-39.71 411.25,-118.81 97.78,-79.41 146.68,-191.46 146.68,-336.14 0,-288.79 -182.62,-433.19 -548.57,-433.19l-209.57 0zm2350.64 1009.59c-113.59,48.23 -255.23,72.34 -424.19,72.34 -219.27,0 -394.71,-56.46 -526.64,-169.68 -131.93,-113.22 -198.08,-261.73 -198.08,-445.53 0,-197.32 74.42,-357.01 222.88,-478.75 148.47,-122.04 336.11,-182.92 562.95,-182.92 145.95,0 267.09,17.05 363.08,50.88l0 203.5c-101.74,-49.41 -213.89,-74.1 -336.82,-74.1 -163.59,0 -296.24,42.64 -397.61,128.22 -101.36,85.58 -152.42,199.98 -152.42,342.89 0,136.16 47.45,244.68 142.36,325.26 94.9,80.87 219.27,121.15 373.85,121.15 142.35,0 266.02,-27.63 370.63,-82.63l0 189.38z"/>
  <path class="fil0" d="M5063.95 1006.78l0 -794.69 108.03 0 416.94 623.76 0 -623.76 101 0 0 794.69 -108.03 0 -416.96 -623.76 0 623.76 -100.99 0zm753.8 -288.02c0,-106.37 29.6,-185.16 88.97,-236.41 49.39,-42.55 109.89,-63.83 181.1,-63.83 78.99,0 143.74,25.9 194.05,77.7 50.13,51.61 75.28,123.2 75.28,214.4 0,73.99 -11.09,132.07 -33.3,174.44 -22.19,42.35 -54.57,75.28 -97.11,98.78 -42.37,23.49 -88.8,35.15 -138.93,35.15 -80.65,0 -145.76,-25.71 -195.52,-77.32 -49.76,-51.61 -74.55,-125.98 -74.55,-222.9zm99.89 0.18c0,73.62 16.1,128.74 48.28,165.19 32.38,36.63 72.89,54.94 121.9,54.94 48.46,0 88.8,-18.31 121.17,-55.12 32.18,-36.81 48.28,-92.86 48.28,-168.15 0,-71.04 -16.28,-124.86 -48.65,-161.31 -32.38,-36.63 -72.7,-54.94 -120.8,-54.94 -49.01,0 -89.52,18.13 -121.9,54.57 -32.18,36.44 -48.28,91.38 -48.28,164.82zm643.92 287.83l-91.02 0 0 -794.69 97.67 0 0 283.59c41.25,-51.43 93.78,-77.15 157.79,-77.15 35.33,0 68.99,7.04 100.62,21.28 31.63,14.25 57.54,34.41 78.06,60.12 20.35,25.9 36.44,56.98 47.91,93.43 11.65,36.25 17.4,75.28 17.4,116.72 0,98.41 -24.42,174.62 -73.07,228.27 -48.84,53.83 -107.3,80.65 -175.55,80.65 -67.89,0 -121.17,-28.3 -159.82,-84.72l0 72.52zm-1.11 -292.28c0,68.82 9.44,118.58 28.12,149.28 30.71,50.13 72.15,75.28 124.5,75.28 42.74,0 79.55,-18.5 110.43,-55.49 31.08,-36.99 46.62,-92.12 46.62,-165.37 0,-75.11 -14.79,-130.42 -44.57,-166.12 -29.78,-35.71 -65.86,-53.64 -108.03,-53.64 -42.74,0 -79.55,18.5 -110.44,55.49 -31.07,36.99 -46.62,90.45 -46.62,160.56zm921.4 105.82l101 13.32c-15.73,58.64 -45.13,104.33 -88.05,136.7 -42.92,32.38 -97.67,48.65 -164.45,48.65 -83.98,0 -150.57,-25.89 -199.78,-77.68 -49.21,-51.61 -73.8,-124.31 -73.8,-217.73 0,-96.56 24.79,-171.66 74.54,-224.94 49.76,-53.47 114.32,-80.11 193.68,-80.11 76.77,0 139.48,26.09 188.13,78.44 48.65,52.34 73.07,125.96 73.07,220.86 0,5.74 -0.18,14.43 -0.55,25.9l-428.98 0c3.7,63.08 21.46,111.54 53.64,145.02 32,33.48 72.14,50.31 120.05,50.31 35.71,0 66.23,-9.43 91.38,-28.3 25.34,-18.86 45.32,-49.01 60.12,-90.45zm-319.65 -156.49l320.76 0c-4.26,-48.46 -16.65,-84.72 -36.81,-108.96 -30.9,-37.54 -71.22,-56.41 -120.62,-56.41 -44.77,0 -82.31,14.98 -112.84,44.95 -30.33,29.97 -47.17,70.11 -50.5,120.42zm541.82 342.96l0 -794.69 97.66 0 0 794.69 -97.66 0zm256.57 0l0 -794.69 105.44 0 0 394.02 394.75 -394.02 142.44 0 -333.33 322.24 347.77 472.45 -138.75 0 -282.84 -401.04 -130.04 125.79 0 275.25 -105.44 0zm712.55 -386.79c0,-131.72 35.51,-234.94 106.37,-309.48 70.85,-74.55 162.22,-111.74 274.33,-111.74 73.44,0 139.48,17.58 198.48,52.54 58.82,34.96 103.77,83.79 134.67,146.51 30.9,62.53 46.43,133.55 46.43,212.92 0,80.46 -16.28,152.61 -48.83,216.06 -32.56,63.63 -78.63,111.73 -138.18,144.29 -59.75,32.73 -124.13,49.01 -193.13,49.01 -74.92,0 -141.69,-18.13 -200.7,-54.21 -58.83,-36.06 -103.59,-85.27 -133.93,-147.79 -30.33,-62.35 -45.5,-128.39 -45.5,-198.12zm108.76 1.85c0,95.63 25.72,170.91 77.15,225.85 51.43,54.94 115.97,82.51 193.67,82.51 79.18,0 144.11,-27.75 195.35,-83.24 51.05,-55.49 76.58,-134.3 76.58,-236.41 0,-64.56 -10.92,-120.98 -32.75,-169.08 -21.83,-48.1 -53.83,-85.46 -95.83,-111.91 -42.17,-26.45 -89.34,-39.77 -141.69,-39.77 -74.37,0 -138.36,25.52 -192.01,76.58 -53.64,51.06 -80.48,136.15 -80.48,255.47zm784.52 384.94l0 -794.69 157.61 0 187.94 562.53c17.38,52.36 29.97,91.58 37.91,117.65 9.07,-28.85 23.31,-71.4 42.55,-127.45l191.27 -552.74 140.78 0 0 794.69 -101 0 0 -664.83 -231.98 664.83 -94.7 0 -229.38 -677.04 0 677.04 -101 0zm926.76 0l0 -794.69 300.05 0c52.71,0 93.05,2.6 120.97,7.59 39.04,6.48 71.78,18.86 98.23,36.99 26.45,18.31 47.73,43.85 63.83,76.58 16.08,32.75 24.04,68.82 24.04,108.21 0,67.34 -21.46,124.5 -64.56,171.11 -42.91,46.8 -120.79,70.11 -233.26,70.11l-203.84 0 0 324.09 -105.45 0zm105.45 -417.32l205.33 0c68.07,0 116.17,-12.57 144.84,-37.92 28.49,-25.34 42.74,-60.85 42.74,-106.92 0,-33.11 -8.32,-61.6 -25.16,-85.27 -16.83,-23.67 -39.04,-39.41 -66.41,-46.98 -17.76,-4.63 -50.51,-7.04 -98.04,-7.04l-203.29 0 0 284.14zm630.42 417.32l0 -794.69 105.44 0 0 701.46 390.69 0 0 93.23 -496.12 0zm623.95 0l0 -794.69 573.82 0 0 93.23 -468.38 0 0 244.18 438.42 0 0 93.23 -438.42 0 0 270.82 487.25 0 0 93.23 -592.68 0zm940.08 0l0 -701.46 -261.94 0 0 -93.23 629.32 0 0 93.23 -261.94 0 0 701.46 -105.44 0z"/>
 </g>
</svg>
