<?xml version="1.0" encoding="UTF-8"?>
<!DOCTYPE svg PUBLIC "-//W3C//DTD SVG 1.1//EN" "http://www.w3.org/Graphics/SVG/1.1/DTD/svg11.dtd">
<!-- Creator: CorelDRAW SE (64-Bit) -->
<svg xmlns="http://www.w3.org/2000/svg" xml:space="preserve" width="48.6917mm" height="4.7243mm" version="1.1" style="shape-rendering:geometricPrecision; text-rendering:geometricPrecision; image-rendering:optimizeQuality; fill-rule:evenodd; clip-rule:evenodd"
viewBox="0 0 3238.89 314.25"
 xmlns:xlink="http://www.w3.org/1999/xlink"
 xmlns:xodm="http://www.corel.com/coreldraw/odm/2003">
 <defs>
  <style type="text/css">
   <![CDATA[
    .fil0 {fill:#FEFEFE;fill-rule:nonzero}
   ]]>
  </style>
 </defs>
 <g id="Vrstva_x0020_1">
  <metadata id="CorelCorpID_0Corel-Layer"/>
  <path class="fil0" d="M346.81 309.19l-67.68 0 -33.44 -77.37 -146.16 0 -32.12 77.37 -67.41 0 139.16 -304.05 69.45 0 138.19 304.05zm-117.4 -118.56l-51.58 -121.3c-1.59,-3.9 -3.27,-10.27 -4.96,-19.03l-1.06 0c-1.51,8.03 -3.28,14.4 -5.14,19.03l-51.13 121.3 113.86 0zm168.45 118.56l0 -304.05 107.23 0c137.04,0 205.61,49.36 205.61,148.22 0,46.9 -19.02,84.6 -57.07,113.12 -38.04,28.44 -89,42.7 -152.88,42.7l-102.89 0zm61.4 -261.2l0 218.57 49.28 0c43.36,0 77.06,-9.77 101.21,-29.24 24.06,-19.54 36.1,-47.11 36.1,-82.72 0,-71.07 -44.95,-106.61 -135.01,-106.61l-51.58 0zm578.52 248.47c-27.96,11.87 -62.81,17.8 -104.4,17.8 -53.97,0 -97.14,-13.9 -129.61,-41.76 -32.47,-27.86 -48.74,-64.42 -48.74,-109.65 0,-48.56 18.31,-87.86 54.85,-117.82 36.54,-30.04 82.72,-45.02 138.54,-45.02 35.92,0 65.73,4.2 89.36,12.52l0 50.09c-25.04,-12.16 -52.64,-18.24 -82.9,-18.24 -40.26,0 -72.9,10.5 -97.86,31.56 -24.94,21.06 -37.51,49.22 -37.51,84.39 0,33.51 11.67,60.22 35.04,80.05 23.35,19.9 53.97,29.82 92.01,29.82 35.04,0 65.47,-6.8 91.22,-20.33l0 46.61z"/>
  <path class="fil0" d="M1246.27 247.77l0 -195.58 26.59 0 102.62 153.51 0 -153.51 24.86 0 0 195.58 -26.59 0 -102.62 -153.51 0 153.51 -24.86 0zm185.52 -70.88c0,-26.17 7.28,-45.57 21.9,-58.18 12.15,-10.47 27.05,-15.7 44.57,-15.7 19.44,0 35.37,6.37 47.76,19.12 12.34,12.7 18.53,30.32 18.53,52.76 0,18.21 -2.73,32.5 -8.2,42.93 -5.46,10.42 -13.43,18.53 -23.9,24.31 -10.42,5.78 -21.85,8.65 -34.19,8.65 -19.85,0 -35.87,-6.33 -48.12,-19.03 -12.25,-12.7 -18.35,-31 -18.35,-54.86zm24.59 0.05c0,18.12 3.96,31.68 11.88,40.66 7.97,9.01 17.94,13.52 30,13.52 11.93,0 21.86,-4.5 29.82,-13.56 7.92,-9.06 11.89,-22.86 11.89,-41.38 0,-17.49 -4.01,-30.73 -11.97,-39.7 -7.97,-9.01 -17.89,-13.52 -29.73,-13.52 -12.06,0 -22.03,4.46 -30,13.43 -7.92,8.97 -11.88,22.49 -11.88,40.56zm158.47 70.84l-22.4 0 0 -195.58 24.03 0 0 69.79c10.16,-12.65 23.08,-18.98 38.84,-18.98 8.69,0 16.98,1.73 24.76,5.23 7.79,3.51 14.16,8.47 19.22,14.79 5,6.38 8.97,14.03 11.79,23 2.87,8.92 4.28,18.53 4.28,28.73 0,24.22 -6.01,42.97 -17.98,56.17 -12.03,13.25 -26.41,19.85 -43.21,19.85 -16.71,0 -29.82,-6.96 -39.33,-20.85l0 17.85zm-0.27 -71.93c0,16.94 2.32,29.18 6.92,36.74 7.56,12.34 17.76,18.53 30.64,18.53 10.52,0 19.58,-4.55 27.18,-13.66 7.65,-9.1 11.47,-22.67 11.47,-40.7 0,-18.49 -3.64,-32.1 -10.97,-40.88 -7.33,-8.79 -16.21,-13.2 -26.59,-13.2 -10.52,0 -19.58,4.55 -27.18,13.66 -7.65,9.11 -11.47,22.26 -11.47,39.52zm226.76 26.04l24.86 3.27c-3.87,14.43 -11.11,25.68 -21.67,33.64 -10.56,7.97 -24.04,11.97 -40.48,11.97 -20.67,0 -37.06,-6.37 -49.17,-19.12 -12.11,-12.71 -18.16,-30.6 -18.16,-53.59 0,-23.76 6.1,-42.25 18.35,-55.36 12.25,-13.16 28.13,-19.72 47.67,-19.72 18.89,0 34.32,6.42 46.3,19.3 11.97,12.88 17.99,31 17.99,54.36 0,1.41 -0.05,3.55 -0.14,6.37l-105.57 0c0.9,15.53 5.28,27.45 13.2,35.69 7.88,8.24 17.75,12.38 29.55,12.38 8.79,0 16.3,-2.31 22.49,-6.96 6.24,-4.64 11.16,-12.06 14.79,-22.26zm-78.66 -38.52l78.94 0c-1.05,-11.93 -4.1,-20.85 -9.06,-26.81 -7.61,-9.24 -17.53,-13.88 -29.69,-13.88 -11.02,0 -20.25,3.69 -27.77,11.06 -7.46,7.38 -11.61,17.25 -12.43,29.63zm133.34 84.41l0 -195.58 24.04 0 0 195.58 -24.04 0zm63.15 0l0 -195.58 25.95 0 0 96.97 97.15 -96.97 35.06 0 -82.04 79.31 85.59 116.27 -34.14 0 -69.61 -98.7 -32 30.96 0 67.74 -25.95 0zm175.36 -95.19c0,-32.42 8.74,-57.82 26.18,-76.17 17.43,-18.35 39.92,-27.5 67.51,-27.5 18.07,0 34.33,4.33 48.85,12.93 14.47,8.61 25.54,20.62 33.14,36.06 7.61,15.39 11.43,32.87 11.43,52.4 0,19.8 -4,37.56 -12.01,53.17 -8.02,15.66 -19.35,27.5 -34.01,35.51 -14.7,8.06 -30.55,12.06 -47.53,12.06 -18.44,0 -34.88,-4.46 -49.4,-13.34 -14.48,-8.88 -25.5,-20.99 -32.96,-36.37 -7.47,-15.35 -11.2,-31.6 -11.2,-48.76zm26.77 0.45c0,23.53 6.33,42.07 18.99,55.58 12.65,13.52 28.54,20.31 47.66,20.31 19.49,0 35.47,-6.83 48.08,-20.49 12.56,-13.66 18.84,-33.05 18.84,-58.18 0,-15.88 -2.69,-29.77 -8.06,-41.61 -5.37,-11.84 -13.25,-21.03 -23.59,-27.55 -10.38,-6.51 -21.98,-9.78 -34.87,-9.78 -18.31,0 -34.06,6.28 -47.25,18.84 -13.2,12.57 -19.81,33.51 -19.81,62.87zm193.08 94.74l0 -195.58 38.79 0 46.25 138.44c4.28,12.88 7.38,22.54 9.33,28.96 2.23,-7.1 5.73,-17.57 10.47,-31.37l47.08 -136.03 34.65 0 0 195.58 -24.86 0 0 -163.62 -57.09 163.62 -23.31 0 -56.45 -166.62 0 166.62 -24.86 0zm228.08 0l0 -195.58 73.85 0c12.97,0 22.9,0.64 29.77,1.87 9.61,1.59 17.67,4.64 24.17,9.11 6.51,4.5 11.75,10.79 15.71,18.84 3.96,8.06 5.91,16.94 5.91,26.63 0,16.57 -5.27,30.64 -15.88,42.11 -10.56,11.51 -29.73,17.25 -57.41,17.25l-50.17 0 0 79.76 -25.96 0zm25.96 -102.7l50.53 0c16.76,0 28.59,-3.09 35.65,-9.33 7.01,-6.24 10.52,-14.98 10.52,-26.31 0,-8.15 -2.05,-15.16 -6.19,-20.99 -4.14,-5.83 -9.61,-9.7 -16.34,-11.56 -4.38,-1.14 -12.43,-1.74 -24.13,-1.74l-50.03 0 0 69.93zm155.15 102.7l0 -195.58 25.95 0 0 172.64 96.15 0 0 22.94 -122.1 0zm153.56 0l0 -195.58 141.23 0 0 22.94 -115.28 0 0 60.1 107.9 0 0 22.94 -107.9 0 0 66.65 119.92 0 0 22.94 -145.87 0zm231.36 0l0 -172.64 -64.47 0 0 -22.94 154.88 0 0 22.94 -64.46 0 0 172.64 -25.95 0z"/>
 </g>
</svg>
