<?xml version="1.0" encoding="UTF-8"?>
<!DOCTYPE svg PUBLIC "-//W3C//DTD SVG 1.1//EN" "http://www.w3.org/Graphics/SVG/1.1/DTD/svg11.dtd">
<!-- Creator: CorelDRAW SE (64-Bit) -->
<svg xmlns="http://www.w3.org/2000/svg" xml:space="preserve" width="54.5368mm" height="12.195mm" version="1.1" style="shape-rendering:geometricPrecision; text-rendering:geometricPrecision; image-rendering:optimizeQuality; fill-rule:evenodd; clip-rule:evenodd"
viewBox="0 0 3337.45 746.29"
 xmlns:xlink="http://www.w3.org/1999/xlink"
 xmlns:xodm="http://www.corel.com/coreldraw/odm/2003">
 <defs>
  <style type="text/css">
   <![CDATA[
    .fil0 {fill:#2D2948;fill-rule:nonzero}
    .fil4 {fill:#5BA7DC;fill-rule:nonzero}
    .fil2 {fill:#6D8AC6;fill-rule:nonzero}
    .fil3 {fill:#7F7EBC;fill-rule:nonzero}
    .fil1 {fill:#8560A8;fill-rule:nonzero}
    .fil5 {fill:#AE619D;fill-rule:nonzero}
   ]]>
  </style>
 </defs>
 <g id="Layer_x0020_1">
  <metadata id="CorelCorpID_0Corel-Layer"/>
  <g id="_1587504927296">
   <path class="fil0" d="M1379.34 158.27c0,-7.61 -6.17,-13.78 -13.78,-13.78l-412.38 0c-7.61,0 -13.78,6.16 -13.78,13.78l0 2.5 0 346.29 0 2.5c0,7.6 6.17,13.77 13.78,13.77l412.38 0c7.61,0 13.78,-6.17 13.78,-13.77l0 -31.73 0 -0.01 0 -2.49c0,-7.61 -6.17,-13.78 -13.78,-13.78l-363.03 0 0 -99.64 277.48 0c7.61,0 13.78,-6.17 13.78,-13.78l0 -2.49c0,-0.01 0.01,-0.01 0.01,-0.01l0 -29.79c0,-7.61 -6.17,-13.78 -13.78,-13.78l-277.48 0 0 -95.79 363.03 0c7.61,0 13.78,-6.16 13.78,-13.77l0 -31.73 0 -0.01 0 -2.49z"/>
   <path class="fil0" d="M1930.54 194.13c-20.23,-31.8 -66.5,-49.63 -141.18,-49.63l-282.09 0c-7.61,0 -13.77,6.16 -13.77,13.77l0 2.5 0 346.29 0 2.5c0,7.61 6.16,13.77 13.77,13.77l36.06 0c7.61,0 13.77,-6.16 13.77,-13.77l0 -95.61 230.82 0c71.31,0 119.01,-15.41 144.07,-52.51 13.49,-19.27 21.69,-46.75 21.69,-80.47 0,-0.4 -0.04,-0.78 -0.04,-1.19 0.01,-0.45 0.04,-0.86 0.04,-1.31 0,-37.11 -10.12,-65.54 -23.14,-84.33zm-51.07 124.32c-13.48,21.69 -42.88,33.25 -100.71,33.25l-221.66 0 0 -147.36 222.14 0c55.91,0 88.19,13 100.23,34.69 5.6,9.31 9.34,23.6 9.58,38.91 -0.12,16.43 -3.43,30.11 -9.58,40.51z"/>
   <path class="fil0" d="M2109.47 144.5l-37.98 0c-7.6,0 -13.78,6.17 -13.78,13.78l0 2.5 0 346.29 0 2.5c0,7.61 6.17,13.78 13.78,13.78l37.98 0c7.61,0 13.77,-6.17 13.77,-13.78l0 -2.5 0 0 0 -348.79c0,-7.61 -6.17,-13.78 -13.77,-13.78z"/>
   <path class="fil0" d="M3323.68 144.5l-33.17 0c-7.61,0 -13.77,6.17 -13.77,13.78l0 2.49c0,0 -0.01,0.01 -0.01,0.01l0 279.1 -318.23 -286.04c-6.69,-6.02 -15.36,-9.34 -24.36,-9.34l-41.64 0c-7.61,0 -13.78,6.17 -13.78,13.78l0 348.79c0,0 0.01,0.01 0.01,0.01l0 2.49c0,7.61 6.16,13.78 13.77,13.78l35.57 0c7.61,0 13.78,-6.17 13.78,-13.78l0 -283.05 317.73 287.41c6.7,6.05 15.42,9.41 24.45,9.41l39.65 0c7.61,0 13.78,-6.17 13.78,-13.78l0 -2.5 0 -346.29 0 -2.5c0,-7.61 -6.17,-13.78 -13.78,-13.78z"/>
   <path class="fil0" d="M2776.12 332.66c0,-53 -6.68,-116.63 -49.23,-149.88 -58.55,-45.74 -129.06,-45.7 -225.9,-45.7 -96.85,0 -167.35,-0.05 -225.9,45.7 -42.55,33.25 -49.24,96.88 -49.24,149.88 0,0.45 0.01,0.92 0.01,1.37 0,0.38 -0.01,0.76 -0.01,1.13 0,53 6.69,116.62 49.23,149.88 58.56,45.74 129.06,45.7 225.9,45.7 96.85,0 167.35,0.05 225.91,-45.7 42.54,-33.25 49.23,-96.88 49.23,-149.88 0,-0.46 -0.01,-0.94 -0.01,-1.41 0,-0.35 0.01,-0.73 0.01,-1.1zm-95.77 106.41c-43.02,30.72 -98.89,29.89 -179.37,29.89 -80.47,0 -136.35,0.83 -179.37,-29.89 -29.16,-20.83 -30.68,-71.17 -30.71,-104.9 0.02,-33.74 1.41,-84.49 30.71,-105.41 43.01,-30.72 98.9,-29.89 179.36,-29.89 80.47,0 136.35,-0.83 179.37,29.89 29.23,20.88 30.69,71.43 30.72,105.15 -0.03,33.74 -1.49,84.29 -30.72,105.16z"/>
   <path class="fil1" d="M117.05 456.98c25.21,-17.17 35.92,-45.05 32.58,-71.59 -2.25,-17.84 2.34,-35.83 15.05,-48.54l170.18 -170.17c13.44,-13.45 32.4,-18.94 51.29,-16.71 10.11,1.19 20.89,0.25 32.14,-3.57 31.25,-10.62 51.33,-41.25 51.33,-74.26l0 -58.87c0,-7.33 -5.94,-13.27 -13.27,-13.27l-61.96 0c-41.55,0 -75.23,33.68 -75.23,75.23 0,2.74 0.17,5.43 0.47,8.08 2.2,18.96 -3.21,37.97 -16.69,51.46l-168.41 168.41c-12.9,12.89 -31.03,19.55 -49.09,16.98 -22.49,-3.2 -46.09,3.73 -63.41,21.05 -33.17,33.16 -28.89,89.59 12.83,116.76 24.72,16.1 57.81,15.64 82.19,-0.98z"/>
   <path class="fil2" d="M674.09 276.67c-33,0 -63.62,20.07 -74.24,51.32 -3.83,11.26 -4.77,22.04 -3.58,32.15 2.23,18.89 -3.26,37.84 -16.71,51.29l-170.17 170.17c-12.72,12.71 -30.71,17.31 -48.54,15.06 -26.53,-3.34 -54.42,7.37 -71.59,32.57 -16.61,24.39 -17.08,57.47 -0.97,82.2 27.17,41.71 83.59,45.98 116.76,12.83 17.32,-17.32 24.25,-40.92 21.05,-63.41 -2.57,-18.06 4.08,-36.2 16.98,-49.09l168.42 -168.42c13.45,-13.45 32.4,-18.93 51.29,-16.71 10.1,1.19 20.88,0.25 32.13,-3.57 31.25,-10.62 51.33,-41.25 51.33,-74.25l0 -58.88c0,-7.33 -5.94,-13.27 -13.27,-13.27l-58.88 0z"/>
   <path class="fil3" d="M313.42 464.78c13.49,-13.49 32.45,-18.84 51.4,-16.65 2.65,0.31 5.35,0.47 8.08,0.47 41.55,0 75.23,-33.68 75.23,-75.23l0 -61.96c0,-7.33 -5.94,-13.27 -13.27,-13.27l-61.96 0c-41.55,0 -75.23,33.68 -75.23,75.23l0 0.01c0,3.13 0.21,6.21 0.61,9.22 2.4,18.13 -2.93,36.41 -15.86,49.34l-136.82 136.83c-10.91,10.9 -25.81,16.3 -41.24,16.39 -3.69,0.02 -7.47,0.43 -11.34,1.29 -26.58,5.89 -44.75,30.62 -44.75,57.83 0,29.67 24.05,53.72 53.72,53.72 27.22,0 51.94,-18.18 57.84,-44.75 0.86,-3.87 1.26,-7.66 1.28,-11.35 0.1,-15.42 5.49,-30.32 16.39,-41.22 33.41,-33.41 99.74,-99.74 135.91,-135.91z"/>
   <path class="fil4" d="M638.77 585.23c-28.93,1.41 -52.13,24.61 -53.55,53.55 -1.6,32.69 26.68,59.23 59.42,59.23l40.08 0c7.33,0 13.27,-5.94 13.27,-13.27l0 -40.08c0,-32.73 -26.53,-61.02 -59.23,-59.42z"/>
   <path class="fil5" d="M107.51 161.06c28.93,-1.42 52.13,-24.63 53.55,-53.55 1.6,-32.7 -26.69,-59.23 -59.42,-59.23l-40.08 0c-7.33,0 -13.27,5.95 -13.27,13.27l0 40.08c0,32.73 26.53,61.02 59.23,59.43z"/>
   <polygon class="fil1" points="619.4,55.51 619.4,90.04 611.05,90.04 611.05,55.51 592.43,55.51 592.43,48.29 637.96,48.29 637.96,55.51 "/>
   <polygon class="fil1" points="690.21,90.04 690.21,60.14 675.42,90.04 667.17,90.04 652.81,60.14 652.81,90.04 644.99,90.04 644.99,48.29 655.69,48.29 671.48,80.95 687.55,48.29 698.03,48.29 698.03,90.04 "/>
   <path class="fil0" d="M1778.15 744.26l0 -112.47 -23.21 0 -46.27 92.55 -45.42 -92.55 -23.64 0 0 112.47 17.06 0 0 -86.53 42.4 86.53 18.63 0 43.41 -86.53 0 86.53 17.05 0zm159.09 0l0 -16.47 -87.39 0 0 -32.09 83.96 0 0 -16.33 -83.96 0 0 -31.23 86.39 0 0 -16.33 -103.87 0 0 112.47 104.87 0zm157.94 -21.49c5.16,-8.02 7.59,-18.63 7.59,-36.11 0,-16.62 -2.29,-27.08 -7.45,-34.96 -7.31,-12.75 -23.21,-19.92 -47.86,-19.92l-62.75 0 0 112.47 63.61 0c24.36,0 39.26,-7.88 46.85,-21.49zm-15.9 -8.17c-5.45,9.03 -16.91,13.61 -35.1,13.61l-41.83 0 0 -80.37 42.84 0c17.19,0 28.36,4.44 34.1,13.32 3.58,5.16 5.3,14.04 5.3,26.08 0,12.46 -1.58,21.92 -5.3,27.36zm86.73 29.66l0 -112.47 -18.19 0 0 112.47 18.19 0zm175.42 -41.97l-18.63 0c-0.57,5.16 -2.58,10.31 -6.16,14.19 -7.74,9.03 -20.06,12.89 -38.97,12.89 -15.9,0 -32.95,-4.44 -41.12,-16.05 -4.3,-5.44 -7.03,-13.46 -7.03,-25.5 0,-10.74 1.87,-18.76 6.02,-24.21 6.87,-11.03 21.35,-16.76 41.69,-16.76 19.77,0 32.23,5.44 38.82,13.03 3.72,4.01 5.87,8.74 6.59,14.33l18.62 0c-0.57,-6.3 -2.58,-13.75 -6.88,-20.05 -9.17,-13.61 -26.07,-24.36 -57.02,-24.36 -29.51,0 -47.14,9.45 -56.88,23.64 -6.3,8.16 -9.46,19.63 -9.46,34.24 0,16.33 3.87,28.36 10.61,36.82 9.74,13.32 28.51,21.35 56.88,21.35 29.09,0 46.42,-8.74 55.02,-22.64 4.87,-6.73 7.31,-14.75 7.88,-20.92zm58.8 14.19l70.06 0 14.33 27.79 19.2 0 -57.02 -112.47 -21.06 0 -58.88 112.47 18.77 0 14.61 -27.79zm62.61 -15.9l-54.87 0 22.78 -43.13 5.02 -10.46 5.01 10.46c0,0 22.21,43.13 22.07,43.13zm174.41 43.69l0 -16.47 -77.51 0 0 -95.99 -17.91 0 0 112.47 95.42 0z"/>
  </g>
 </g>
</svg>
